<svg xmlns="http://www.w3.org/2000/svg" viewBox="0 0 1920 400" width="1920" height="400">
  <defs>
    <linearGradient id="wood" x1="0%" y1="0%" x2="100%" y2="100%">
      <stop offset="0%" stop-color="#2a1f18"/>
      <stop offset="30%" stop-color="#5c3d2e"/>
      <stop offset="65%" stop-color="#8b5e3c"/>
      <stop offset="100%" stop-color="#1f1410"/>
    </linearGradient>
    <linearGradient id="glow" x1="0%" y1="0%" x2="100%" y2="0%">
      <stop offset="0%" stop-color="#1a73e8" stop-opacity="0.45"/>
      <stop offset="45%" stop-color="#7b1fa2" stop-opacity="0.3"/>
      <stop offset="100%" stop-color="#2e7d32" stop-opacity="0.35"/>
    </linearGradient>
    <linearGradient id="shine" x1="0%" y1="0%" x2="0%" y2="100%">
      <stop offset="0%" stop-color="#ffffff" stop-opacity="0.18"/>
      <stop offset="100%" stop-color="#ffffff" stop-opacity="0"/>
    </linearGradient>
    <pattern id="grain" width="60" height="60" patternUnits="userSpaceOnUse">
      <path d="M0 30 Q15 26 30 30 T60 30" fill="none" stroke="#ffffff" stroke-opacity="0.05" stroke-width="1.5"/>
      <path d="M0 45 Q20 42 40 45 T60 45" fill="none" stroke="#000000" stroke-opacity="0.07" stroke-width="1"/>
    </pattern>
  </defs>
  <rect width="1920" height="400" fill="url(#wood)"/>
  <rect width="1920" height="400" fill="url(#grain)"/>
  <rect width="1920" height="400" fill="url(#glow)"/>
  <rect width="1920" height="120" fill="url(#shine)"/>
  <circle cx="1650" cy="70" r="200" fill="#ffffff" fill-opacity="0.07"/>
  <circle cx="180" cy="330" r="160" fill="#1a73e8" fill-opacity="0.15"/>
  <path d="M1500 320 L1580 220 L1660 320 Z" fill="#f5e6d3" fill-opacity="0.08"/>
  <rect x="1520" y="320" width="120" height="8" rx="2" fill="#f5e6d3" fill-opacity="0.12"/>
  <text x="96" y="195" font-family="Georgia, 'Times New Roman', serif" font-size="76" font-weight="700" fill="#f8efe3">Vintage Furniture</text>
  <text x="100" y="255" font-family="system-ui, -apple-system, sans-serif" font-size="26" fill="#d9c9b5" letter-spacing="8">INTEGRATION TEST LAB</text>
</svg>
